<svg id="vgsr-logo" xmlns="http://www.w3.org/2000/svg" xmlns:xlink="http://www.w3.org/1999/xlink" 
  x="0" y="0" width="203" height="200" viewBox="0 0 203 200" enable-background="new 0 0 203 200">
  <style type="text/css"><![CDATA[
    #logo-text {
      font-family: Perpetua, Times, serif;
      font-size: 25px;
      font-variant: small-caps;
      letter-spacing: 7.5px;
      word-spacing: 5px;
      font-weight: bold;
    }

    .logo-style {
      /*fill: #fff;*/
    }

    /**
     * IE9+ renders the font differently, so correct it for the most part
     */
    @media screen and (min-width:0\0) and (min-resolution: +72dpi) {
      #logo-text {
        font-size: 24px;
      }
    }
  ]]></style>

  <!-- Characters -->
  <g id="logo-chars" class="logo-style" transform="translate(0,-852.36218) matrix(0.40462963,0,0,-0.40606848,-5.2637871,1056.7772)">
    <!-- V -->
    <g id="logo-char-v">
      <path transform="translate(291.21,379.1973)"
         d="M 0,0 C 3.8,-10.73 33.63,-1.06 42,-6 37.12,-7.5 27.25,-10.75 18.95,-18.84 1.3,-35.71 -5.49,-67.52 -25,-82 c -2.85,33.09 -40.91,39.59 -27,83 -10.16,-7.5 -11.84,-21.41 -10,-32 4.54,-26.12 47.51,-36.2 27,-64 0.3,3.38 -1.81,8.81 -6.63,14.1 -14.99,16.11 -34.24,34.79 -27.37,66.9 -7.08,-2.57 -19.53,-13.7 -31.5,-13.63 -7.5,0.01 -10.9,1.63 -10.9,8.75 0.3,10.01 7.29,16.23 14.4,20.88 -1.902701,-2.34913335 -3.95,-5.8 -4.77,-10.13 -1.23,-4.99 4.27,-7.37 9.17,-6.66 7.46,1.09 14.92,7 20.6,10.79 9.22,6.14 18.91,13.13 23,22 1.5,2.75 11.13,1.54 16,2 -5.09,-12.44 -16.23,-24.57 -13,-41 2.75,-14 19.5,-21 26,-39 8.94,13.88 16.26,29.8 28,42 -25.95,-1.56 -24.28,35.66 3,32 C 6.766448,12.621753 -2.86,8.07 0,0" />
     </g>
    <!-- G -->
    <g id="logo-char-g">
      <g id="logo-char-g1" transform="translate(369.21,345.1973)">
        <path
           d="m 0,0 c 16.7,-11.84 5.58,-58.63 21,-71 -27.36,8.09 -32.52,41.33 -68,32 -26.21,-6.89 -35.09,-53.29 -16,-74 8.07,-8.75 33.94,-14.27 39,4 0.88,4 1.29,9.29 -1,11 7.59,2.09 13.06,-9.66 13.12,-20.5 0,-8.12 -3.87,-17.17 -23,-17.17 -33.4,0 -54.89,33.19 -50.12,71.67 5.15,41.52 61.79,47.84 86,17 2.78,13.93 0.74,40.9 -10,40 -9.7,-0.81 -5.8,-18.87 0,-24 -12.2,0.65 -23.92,22.93 -13,32 6.67,5.54 16.3,3.04 22,-1" />
      </g>
      <g id="logo-char-g2" transform="translate(381.21,271.1973)">
        <path
           d="M 0,0 C 7.07,-2.04 6.52,-10.98 11,-15 2.58,-30.43 -5.37,-51.04 -1,-76 c -16.03,10.36 -10.31,47.59 -3,63 -23,-0.64 -63.66,-6.17 -71,15 12.21,-4.69 32.43,-6.54 54,-5 8.27,0.59 16.71,4.24 21,3" />
      </g>
    </g>
    <!-- S -->
    <g id="logo-char-s">
      <path transform="translate(312.21,158.1973)"
         d="m 0,0 c 5.23,-17.23 -25.51,-24.25 -25,-43 -21.58,16.13 -62.62,37.42 -97,19 4.75,36.48 83.17,14.96 96,-1 11.88,6.51 13.99,21.9 -1,26 -23.51,6.42 -75.4,-5.92 -84,16 -9.96,25.4 15.72,51.24 45,43 5.54,-1.56 12.17,-4.31 18,-7 4.38,-2.02 22.81,-14.07 24,-1 0.58,6.34 -7.81,10.31 -10.06,10.5 -4.5,0.25 -6.44,-1.06 -8.94,-3.5 5.473663,17.767681 28.18508,2.660141 27,-11 -0.54,-6.51 -7.74,-12.27 -13,-13 -14.3,-1.99 -31.19,18.37 -50,18 -22.03,-0.44 -34.7,-28.36 -12,-38 10.47,-4.45 27.95,-2.73 42,-2 -0.58,18.05 -22.95,14.33 -36.92,19 -5.2,1.69 -7.77,4.06 -7.12,9.82 0.61,4.13 2.77,6.71 6.04,8.18 2.88,1.06 6.39,1.08 9,-2 -2.75,0.06 -7.88,-4 -6.37,-7.41 1.42,-3.21 4.35,-4.84 7.58,-5.93 7.04,-2.38 16.55,-1.75 22.79,-5.66 6.51,-4.08 7.75238,-8.595223 10.81238,-16.065223 C -32.31762,12.074777 -3.44,11.33 0,0" />
     </g>
    <!-- R -->
    <g id="logo-char-r">
      <g id="logo-char-r1" transform="translate(225.21,291.1973)">
        <path
           d="m 0,0 c 17.74,-3.52 14.23,-25.5 14,-45 -27.17,14.72 -42.75,-12.6 -63,-16 -13.21,-2.22 -25.1,1.44 -39,3 4.83,-14.62 -0.03,-44.58 16,-45 15.89,-0.42 6.85,26.56 -4,30 17.83,1.83 26.03,-20.54 19.22,-33.47 -1.42,-2.69 -4.55,-8.36 -17.48,-6.94 -28.27,3.77 -14.97,49.13 -28.74,67.41 11.14,-3.29 17.5,-9.12 29,-9 17.35,0.18 31.47,15.88 50,19 6.47,1.09 9.08,2.08 17,1.67 3.5,-0.25 7.28,-1.06 12,-1.67 0.18,11.89 0.45,28.15 -5,36" />
      </g>
      <g id="logo-char-r2" transform="translate(193.6299,327.8672)">
        <path
           d="m 0,0 c 17.9,2.12 26.1,-16.32 23.58,-28.67 -2.36,-11.56 -21.45,-21.52 -35,-20 -11.83,1.33 -17.63,10.18 -22,21 -10.07,-1.61 -46.64,-40.57 -13,-43 20.48,-1.48 62.04,32.62 76,2 -7.49,1.11 -20.2,3.92 -29,3 -18.77,-1.96 -28.74,-19.48 -49,-17 -13.16,1.61 -22.66,13.73 -21,28 2.23,19.23 20.51,30.6 32,43 5.11,-4.85 7.94,-12 12.02,-17.89 15.15,-20.86 37.1,-5.86 36.98,11.89 C 11.52,-8.73 6.33,-4.92 0,0" />
      </g>
    </g>
  </g>

  <!-- Top mini circle -->
  <circle r="3" cx="100" cy="8" class="logo-style" />

  <!-- Text path circle -->
  <path id="logo-text-path" class="logo-style" style="fill:none;"
        d="M 100,0
           C 155.22847, 0    200, 45.22847   200,100
           C 200, 155.22847  155.22847, 200  100,200
           C 45.22847, 200   0, 155.22847    0,100
           C 0, 45.22847     45.22847, 0     100,0">
  </path>

  <!-- Circling text -->
  <text id="logo-text" text-anchor="middle" class="logo-style" dy="0.5em">
    <textPath startOffset="50%" xlink:href="#logo-text-path">Victi Gratia Semper Reformandi</textPath>
  </text>
</svg>